<?xml version="1.0" encoding="utf-8"?>
<!-- Generator: Adobe Illustrator 22.0.1, SVG Export Plug-In . SVG Version: 6.00 Build 0)  -->
<svg version="1.1" id="Calque_2_-_copie_6" xmlns="http://www.w3.org/2000/svg" xmlns:xlink="http://www.w3.org/1999/xlink" x="0px"
	 y="0px" viewBox="0 0 246.8 246.7" style="enable-background:new 0 0 246.8 246.7;" xml:space="preserve">
<style type="text/css">
	.st0{fill:#7DAD63;}
	.st1{fill:none;stroke:#7DAD63;stroke-width:20;}
	.st2{fill:none;stroke:#FFFFFF;stroke-width:3;}
	.st3{fill:#FFFFFF;}
</style>
<g>
	<circle class="st0" cx="123.6" cy="123.1" r="112.4"/>
	<circle class="st1" cx="123.6" cy="123.1" r="112.4"/>
	<circle class="st2" cx="123.6" cy="123.1" r="112.4"/>
</g>
<g id="Calque_17">
	<path class="st3" d="M55.3,131.5c0,0.4,0,0.7,0,1c0,0.3-0.1,0.5-0.1,0.7c0,0.2-0.1,0.3-0.2,0.5c-0.1,0.1-0.2,0.3-0.4,0.5
		c-0.2,0.2-0.5,0.4-1,0.7s-1,0.5-1.7,0.8c-0.7,0.2-1.5,0.5-2.3,0.6s-1.8,0.2-2.8,0.2c-2,0-3.8-0.3-5.4-0.9c-1.6-0.6-3-1.5-4.1-2.8
		c-1.1-1.2-2-2.7-2.6-4.6c-0.6-1.8-0.9-4-0.9-6.4c0-2.5,0.3-4.7,1-6.6c0.7-1.9,1.6-3.5,2.8-4.8c1.2-1.3,2.6-2.3,4.3-3
		c1.7-0.7,3.5-1,5.5-1c0.8,0,1.6,0.1,2.3,0.2c0.7,0.1,1.4,0.3,2.1,0.5c0.6,0.2,1.2,0.5,1.7,0.8c0.5,0.3,0.9,0.5,1.1,0.7
		c0.2,0.2,0.3,0.4,0.4,0.5c0.1,0.1,0.1,0.3,0.2,0.5s0.1,0.5,0.1,0.7s0,0.6,0,1.1c0,0.4,0,0.8,0,1.1c0,0.3-0.1,0.6-0.2,0.8
		c-0.1,0.2-0.2,0.3-0.3,0.4c-0.1,0.1-0.2,0.1-0.4,0.1c-0.2,0-0.5-0.1-0.9-0.4c-0.3-0.3-0.8-0.6-1.3-0.9c-0.5-0.3-1.2-0.6-2-0.9
		c-0.8-0.3-1.7-0.4-2.7-0.4c-1.2,0-2.2,0.2-3.1,0.7c-0.9,0.5-1.7,1.1-2.3,2c-0.6,0.9-1.1,1.9-1.4,3.2c-0.3,1.2-0.5,2.6-0.5,4.2
		c0,1.7,0.2,3.2,0.5,4.4c0.4,1.3,0.9,2.3,1.5,3.1s1.4,1.4,2.4,1.8c0.9,0.4,2,0.6,3.1,0.6c1,0,2-0.1,2.7-0.4c0.8-0.2,1.4-0.5,2-0.8
		c0.5-0.3,1-0.6,1.3-0.8c0.4-0.2,0.6-0.4,0.8-0.4c0.1,0,0.3,0,0.4,0.1s0.2,0.2,0.2,0.4c0.1,0.2,0.1,0.4,0.1,0.8
		C55.3,130.6,55.3,131,55.3,131.5z"/>
	<path class="st3" d="M78.4,135.2c0,0.1,0,0.3-0.1,0.4c-0.1,0.1-0.2,0.2-0.4,0.3c-0.2,0.1-0.5,0.1-0.9,0.2c-0.4,0-0.8,0.1-1.4,0.1
		c-0.6,0-1,0-1.4-0.1c-0.4,0-0.7-0.1-0.9-0.2c-0.2-0.1-0.4-0.2-0.4-0.3c-0.1-0.1-0.1-0.2-0.1-0.4v-11.4c0-1-0.1-1.7-0.2-2.3
		c-0.1-0.6-0.3-1-0.6-1.4c-0.3-0.4-0.6-0.7-1-0.9c-0.4-0.2-0.9-0.3-1.5-0.3c-0.7,0-1.4,0.3-2.2,0.8c-0.7,0.5-1.5,1.3-2.3,2.3v13.3
		c0,0.1,0,0.3-0.1,0.4c-0.1,0.1-0.2,0.2-0.5,0.3c-0.2,0.1-0.5,0.1-0.9,0.2c-0.4,0-0.8,0.1-1.4,0.1c-0.6,0-1,0-1.4-0.1
		c-0.4,0-0.6-0.1-0.9-0.2c-0.2-0.1-0.4-0.2-0.5-0.3c-0.1-0.1-0.1-0.2-0.1-0.4v-29.5c0-0.1,0-0.3,0.1-0.4s0.2-0.2,0.5-0.3
		c0.2-0.1,0.5-0.1,0.9-0.2s0.8-0.1,1.4-0.1c0.6,0,1,0,1.4,0.1s0.6,0.1,0.9,0.2c0.2,0.1,0.4,0.2,0.5,0.3s0.1,0.3,0.1,0.4v11.1
		c1-1,2-1.7,3-2.1c1-0.5,2.1-0.7,3.2-0.7c1.4,0,2.5,0.2,3.4,0.7c0.9,0.4,1.7,1.1,2.3,1.8c0.6,0.8,1,1.7,1.2,2.7
		c0.3,1,0.4,2.3,0.4,3.8V135.2z"/>
	<path class="st3" d="M101,135.2c0,0.2-0.1,0.4-0.2,0.5c-0.1,0.1-0.4,0.2-0.7,0.3c-0.3,0.1-0.8,0.1-1.4,0.1c-0.7,0-1.2,0-1.5-0.1
		c-0.3-0.1-0.5-0.1-0.7-0.3c-0.1-0.1-0.2-0.3-0.2-0.5v-1.6c-0.8,0.9-1.8,1.6-2.8,2.1s-2.2,0.7-3.5,0.7c-1.1,0-2-0.1-2.9-0.4
		c-0.9-0.3-1.7-0.7-2.3-1.2c-0.7-0.5-1.2-1.2-1.5-2s-0.5-1.8-0.5-2.8c0-1.2,0.2-2.2,0.7-3c0.5-0.9,1.1-1.6,2-2.1
		c0.9-0.6,2-1,3.4-1.2s2.9-0.4,4.7-0.4h2v-1.2c0-0.6-0.1-1.2-0.2-1.7c-0.1-0.5-0.3-0.9-0.6-1.2s-0.7-0.5-1.2-0.7
		c-0.5-0.1-1.1-0.2-1.8-0.2c-0.9,0-1.8,0.1-2.5,0.3s-1.4,0.4-2,0.7c-0.6,0.3-1,0.5-1.4,0.7s-0.7,0.3-0.9,0.3c-0.2,0-0.3-0.1-0.4-0.2
		c-0.1-0.1-0.2-0.3-0.3-0.4c-0.1-0.2-0.1-0.4-0.2-0.7s-0.1-0.6-0.1-0.9c0-0.5,0-0.8,0.1-1.1c0.1-0.3,0.2-0.5,0.4-0.7
		c0.2-0.2,0.6-0.5,1.1-0.7c0.5-0.3,1.1-0.5,1.8-0.7c0.7-0.2,1.5-0.4,2.3-0.5c0.8-0.1,1.7-0.2,2.6-0.2c1.6,0,2.9,0.2,4,0.5
		c1.1,0.3,2,0.8,2.8,1.4c0.7,0.6,1.2,1.5,1.6,2.5c0.3,1,0.5,2.2,0.5,3.6V135.2z M95.4,126.7h-2.2c-0.9,0-1.7,0.1-2.3,0.2
		c-0.6,0.1-1.2,0.3-1.6,0.6s-0.7,0.6-0.9,1c-0.2,0.4-0.3,0.8-0.3,1.3c0,0.8,0.3,1.5,0.8,2c0.5,0.5,1.3,0.7,2.2,0.7
		c0.8,0,1.5-0.2,2.2-0.6c0.7-0.4,1.3-1,2-1.8V126.7z"/>
	<path class="st3" d="M125.8,135.2c0,0.1,0,0.3-0.1,0.4c-0.1,0.1-0.2,0.2-0.4,0.3s-0.5,0.1-0.9,0.2c-0.4,0-0.8,0.1-1.4,0.1
		c-0.6,0-1,0-1.4-0.1c-0.4,0-0.7-0.1-0.9-0.2c-0.2-0.1-0.4-0.2-0.4-0.3c-0.1-0.1-0.1-0.2-0.1-0.4v-11.4c0-1-0.1-1.7-0.2-2.3
		c-0.1-0.6-0.3-1-0.6-1.4c-0.3-0.4-0.6-0.7-1-0.9c-0.4-0.2-0.9-0.3-1.5-0.3c-0.7,0-1.4,0.3-2.2,0.8c-0.7,0.5-1.5,1.3-2.3,2.3v13.3
		c0,0.1,0,0.3-0.1,0.4c-0.1,0.1-0.2,0.2-0.5,0.3c-0.2,0.1-0.5,0.1-0.9,0.2c-0.4,0-0.8,0.1-1.4,0.1c-0.6,0-1,0-1.4-0.1
		c-0.4,0-0.6-0.1-0.9-0.2c-0.2-0.1-0.4-0.2-0.5-0.3c-0.1-0.1-0.1-0.2-0.1-0.4v-20c0-0.1,0-0.3,0.1-0.4c0.1-0.1,0.2-0.2,0.4-0.3
		c0.2-0.1,0.4-0.1,0.8-0.2c0.3,0,0.7-0.1,1.2-0.1c0.5,0,0.9,0,1.2,0.1c0.3,0,0.6,0.1,0.7,0.2c0.2,0.1,0.3,0.2,0.4,0.3
		c0.1,0.1,0.1,0.2,0.1,0.4v2.3c1.1-1.2,2.2-2.1,3.4-2.7s2.3-0.9,3.6-0.9c1.4,0,2.5,0.2,3.4,0.7c0.9,0.4,1.7,1.1,2.3,1.8
		c0.6,0.8,1,1.7,1.2,2.7s0.4,2.3,0.4,3.7V135.2z"/>
	<path class="st3" d="M165.3,117c0,0.5,0,1,0,1.3s-0.1,0.6-0.1,0.8s-0.1,0.3-0.2,0.4c-0.1,0.1-0.2,0.1-0.4,0.1c-0.1,0-0.3,0-0.4-0.1
		c-0.1-0.1-0.3-0.1-0.5-0.2c-0.2-0.1-0.4-0.1-0.6-0.2c-0.2-0.1-0.5-0.1-0.7-0.1c-0.3,0-0.6,0.1-0.9,0.2c-0.3,0.1-0.6,0.3-1,0.6
		c-0.3,0.3-0.7,0.6-1.1,1.1c-0.4,0.4-0.8,1-1.2,1.7v12.5c0,0.1,0,0.3-0.1,0.4c-0.1,0.1-0.2,0.2-0.5,0.3c-0.2,0.1-0.5,0.1-0.9,0.2
		c-0.4,0-0.8,0.1-1.4,0.1s-1,0-1.4-0.1c-0.4,0-0.6-0.1-0.9-0.2c-0.2-0.1-0.4-0.2-0.5-0.3c-0.1-0.1-0.1-0.2-0.1-0.4v-20
		c0-0.1,0-0.3,0.1-0.4c0.1-0.1,0.2-0.2,0.4-0.3s0.4-0.1,0.8-0.2c0.3,0,0.7-0.1,1.2-0.1c0.5,0,0.9,0,1.2,0.1c0.3,0,0.6,0.1,0.7,0.2
		c0.2,0.1,0.3,0.2,0.4,0.3c0.1,0.1,0.1,0.2,0.1,0.4v2.5c0.5-0.7,1-1.4,1.5-1.9c0.5-0.5,0.9-0.9,1.3-1.2s0.8-0.5,1.3-0.6
		c0.4-0.1,0.8-0.2,1.3-0.2c0.2,0,0.4,0,0.6,0c0.2,0,0.5,0.1,0.7,0.1c0.2,0.1,0.4,0.1,0.6,0.2c0.2,0.1,0.3,0.1,0.4,0.2
		c0.1,0.1,0.1,0.2,0.2,0.2c0,0.1,0.1,0.2,0.1,0.4c0,0.2,0.1,0.4,0.1,0.7S165.3,116.5,165.3,117z"/>
	<path class="st3" d="M188.5,125c0,1.7-0.2,3.3-0.7,4.7s-1.1,2.6-2,3.6s-2.1,1.8-3.4,2.4s-3,0.8-4.8,0.8c-1.8,0-3.3-0.2-4.6-0.7
		s-2.4-1.2-3.3-2.2s-1.5-2.1-1.9-3.5s-0.6-3-0.6-4.7c0-1.7,0.2-3.3,0.7-4.7c0.5-1.4,1.1-2.6,2.1-3.6c0.9-1,2.1-1.8,3.4-2.3
		c1.4-0.6,3-0.8,4.8-0.8c1.8,0,3.4,0.2,4.7,0.7c1.3,0.5,2.4,1.2,3.3,2.1c0.9,0.9,1.5,2.1,1.9,3.5S188.5,123.2,188.5,125z
		 M182.7,125.2c0-1-0.1-1.9-0.2-2.7c-0.2-0.8-0.4-1.6-0.8-2.2s-0.9-1.1-1.5-1.4c-0.6-0.3-1.4-0.5-2.3-0.5c-0.8,0-1.6,0.2-2.2,0.5
		c-0.6,0.3-1.1,0.8-1.5,1.3c-0.4,0.6-0.7,1.3-0.9,2.1c-0.2,0.8-0.3,1.8-0.3,2.8c0,1,0.1,1.9,0.2,2.7c0.2,0.8,0.4,1.6,0.8,2.2
		c0.4,0.6,0.9,1.1,1.5,1.4c0.6,0.3,1.4,0.5,2.3,0.5c0.9,0,1.6-0.2,2.2-0.5c0.6-0.3,1.1-0.8,1.5-1.3s0.7-1.3,0.9-2.1
		C182.6,127.2,182.7,126.2,182.7,125.2z"/>
	<path class="st3" d="M213.2,125c0,1.7-0.2,3.3-0.7,4.7s-1.1,2.6-2,3.6s-2.1,1.8-3.4,2.4s-3,0.8-4.8,0.8c-1.8,0-3.3-0.2-4.6-0.7
		s-2.4-1.2-3.3-2.2s-1.5-2.1-1.9-3.5s-0.6-3-0.6-4.7c0-1.7,0.2-3.3,0.7-4.7c0.5-1.4,1.1-2.6,2.1-3.6c0.9-1,2.1-1.8,3.4-2.3
		c1.4-0.6,3-0.8,4.8-0.8c1.8,0,3.4,0.2,4.7,0.7c1.3,0.5,2.4,1.2,3.3,2.1c0.9,0.9,1.5,2.1,1.9,3.5S213.2,123.2,213.2,125z
		 M207.4,125.2c0-1-0.1-1.9-0.2-2.7c-0.2-0.8-0.4-1.6-0.8-2.2s-0.9-1.1-1.5-1.4c-0.6-0.3-1.4-0.5-2.3-0.5c-0.8,0-1.6,0.2-2.2,0.5
		c-0.6,0.3-1.1,0.8-1.5,1.3c-0.4,0.6-0.7,1.3-0.9,2.1c-0.2,0.8-0.3,1.8-0.3,2.8c0,1,0.1,1.9,0.2,2.7c0.2,0.8,0.4,1.6,0.8,2.2
		c0.4,0.6,0.9,1.1,1.5,1.4c0.6,0.3,1.4,0.5,2.3,0.5c0.9,0,1.6-0.2,2.2-0.5c0.6-0.3,1.1-0.8,1.5-1.3s0.7-1.3,0.9-2.1
		C207.3,127.2,207.4,126.2,207.4,125.2z"/>
</g>
<path class="st3" d="M170.4,88.2c-2.4,0.8-2.8-0.5-9.3,4.4c-1.9,1.7-3.4,3.6-4.3,5.8c3.2,1.7,6.2,2.3,9.2,1.6c3-1.2,5.5-2.8,7.4-4.9
	c1.7-1.9,4.5-5.9,7.3-9.4c-3.7-2.2-8-3.3-13-2.9c-5.1,0.5-9.1,4.2-12.9,9.2l-14.4,33.4l-13.3-31.2c-3.5-4.2-7.2-7.4-11.3-8.5
	c-2-0.9-3.9-1.5-5.8-1.5v1.5c2.2-0.4,4.6,1.1,7.3,3.7c3.5,4.4,6.1,10.6,8.8,17.5c-5.4,0.7-10.7-2-15.8-7.5c-3.7-7.8-6.4-15-6.7-21.3
	c6.5-1.4,13.2,1.6,19.9,5.1c7.4,6.3,11.3,14.3,11.3,24.2c1.8-9.3-0.2-18.2-8.3-26.3c-4.1-3.6-9.7-6.1-15.8-8.3
	c-4.6-0.5-9.4-0.8-14.3-1.1c0.6,1.9,1.2,3.8,1.8,5.5c1.3,7,3.1,13.7,5.9,22.1c3.6,7.6,13.3,12,23.4,11.8l11,25.1l18.8-43.9
	c2.8-3.4,6.1-6.4,11.3-7c2.5,0,5,0.6,7.6,1.8c-2,2.7-3.9,5.4-5.8,7.9c-3,3.6-6.6,4.7-11.1,2.4C161.8,94.8,161.2,93.4,170.4,88.2z"/>
</svg>
