<?xml version="1.0" encoding="utf-8"?>
<!-- Generator: Adobe Illustrator 22.0.1, SVG Export Plug-In . SVG Version: 6.00 Build 0)  -->
<svg version="1.1" id="Calque_2_-_copie_6" xmlns="http://www.w3.org/2000/svg" xmlns:xlink="http://www.w3.org/1999/xlink" x="0px"
	 y="0px" viewBox="0 0 249 248.5" style="enable-background:new 0 0 249 248.5;" xml:space="preserve">
<style type="text/css">
	.st0{fill:#7DAD63;}
	.st1{fill:none;stroke:#7DAD63;stroke-width:20;}
	.st2{fill:none;stroke:#FFFFFF;stroke-width:3;}
	.st3{fill:none;stroke:#000000;stroke-miterlimit:10;}
	.st4{fill:#FFFFFF;stroke:#FFFFFF;stroke-miterlimit:10;}
	.st5{fill:#FFFFFF;}
</style>
<g>
	<circle class="st0" cx="124.6" cy="124.5" r="112.4"/>
	<circle class="st1" cx="124.6" cy="124.5" r="112.4"/>
	<circle class="st2" cx="124.6" cy="124.5" r="112.4"/>
</g>
<g>
	<g>
		<g>
			<g>
				<path class="st3" d="M95,45.6c8.5-1.9,15.7-3.2,22.4,0.1s16.7,12.5,14.8,17.5c-2.1,5.3-15,6.1-24.6,1.1
					C99.7,60,95.6,52.3,95,45.6z"/>
				<path class="st3" d="M134.9,63.7c0.2-4.2,9.2-7.2,15.5-7.8c7.4-0.6,13.3,1.8,18,6c-3.7,6.3-8.6,10.8-17.5,10.8
					C143.3,72.6,134.7,67.9,134.9,63.7z"/>
				<path class="st3" d="M84.4,95.2c5.8-6.8,16.7-4.8,19.5-4.3c10.4,1.9,11.1,7.9,23.3,11.8c3.5,1.1,11.5,3.5,20.3,1.3
					c11.5-2.9,15.8-11.5,17.8-10.3c2.8,1.9-1.5,23.3-17,31c-10,4.9-22.3,3-30.3-0.8c-7.5-3.5-8.5-7.5-16-9
					c-9.2-1.8-13.7,2.9-17.8-0.3C79.7,111.2,79.5,100.9,84.4,95.2z"/>
				<path class="st3" d="M149,103.7c1.1,4.1,0.2,6.4-0.5,7.7c-3.7,6.5-17.1,5.8-25.7,2.3c-5.9-2.4-9.9-6.2-12.2-8.8"/>
				<path class="st3" d="M135.3,64.2c6.7-0.6,13.4-2,19.8,0"/>
				<path class="st3" d="M110.9,53.7c4.9,0,6.3,0.8,9.1,2.1c4,1.8,7.5,5.4,11.5,7.3"/>
				<path class="st3" d="M133.6,84.2c-0.1-6.9-0.1-13.8-0.2-20.7"/>
			</g>
			<g>
				<path class="st2" d="M95,45.6c8.5-1.9,15.7-3.2,22.4,0.1s16.7,12.5,14.8,17.5c-2.1,5.3-15,6.1-24.6,1.1
					C99.7,60,95.6,52.3,95,45.6z"/>
				<path class="st2" d="M134.9,63.7c0.2-4.2,9.2-7.2,15.5-7.8c7.4-0.6,13.3,1.8,18,6c-3.7,6.3-8.6,10.8-17.5,10.8
					C143.3,72.6,134.7,67.9,134.9,63.7z"/>
				<path class="st2" d="M84.4,95.2c5.8-6.8,16.7-4.8,19.5-4.3c10.4,1.9,11.1,7.9,23.3,11.8c3.5,1.1,11.5,3.5,20.3,1.3
					c11.5-2.9,15.8-11.5,17.8-10.3c2.8,1.9-1.5,23.3-17,31c-10,4.9-22.3,3-30.3-0.8c-7.5-3.5-8.5-7.5-16-9
					c-9.2-1.8-13.7,2.9-17.8-0.3C79.7,111.2,79.5,100.9,84.4,95.2z"/>
				<path class="st2" d="M149,103.7c1.1,4.1,0.2,6.4-0.5,7.7c-3.7,6.5-17.1,5.8-25.7,2.3c-5.9-2.4-9.9-6.2-12.2-8.8"/>
				<path class="st2" d="M135.3,64.2c6.7-0.6,13.4-2,19.8,0"/>
				<path class="st2" d="M110.9,53.7c4.9,0,6.3,0.8,9.1,2.1c4,1.8,7.5,5.4,11.5,7.3"/>
				<path class="st2" d="M133.6,84.2c-0.1-6.9-0.1-13.8-0.2-20.7"/>
			</g>
		</g>
		<path class="st4" d="M133.2,83.6c0.7,0.1,1.4,0.1,2.1,0.2c7.2,5.1,14.5,10.2,21.7,15.3c-3.3,2.3-11.3,7.2-21.7,6.6
			c-9.9-0.6-21.9-6-21.7-11.5L133.2,83.6z"/>
		<circle class="st4" cx="133.6" cy="64.2" r="4.3"/>
	</g>
	<g>
		<g>
			<path class="st5" d="M56.4,166c0,0.4,0,0.7,0,1c0,0.3-0.1,0.5-0.1,0.7c0,0.2-0.1,0.3-0.2,0.5c-0.1,0.1-0.2,0.3-0.4,0.5
				c-0.2,0.2-0.5,0.4-1,0.7s-1,0.5-1.7,0.8c-0.7,0.2-1.5,0.5-2.3,0.6s-1.8,0.2-2.8,0.2c-2,0-3.8-0.3-5.4-0.9c-1.6-0.6-3-1.5-4.1-2.8
				c-1.1-1.2-2-2.7-2.6-4.6c-0.6-1.8-0.9-4-0.9-6.4c0-2.5,0.3-4.7,1-6.6c0.7-1.9,1.6-3.5,2.8-4.8c1.2-1.3,2.6-2.3,4.3-3
				c1.7-0.7,3.5-1,5.5-1c0.8,0,1.6,0.1,2.3,0.2c0.7,0.1,1.4,0.3,2.1,0.5c0.6,0.2,1.2,0.5,1.7,0.8c0.5,0.3,0.9,0.5,1.1,0.7
				c0.2,0.2,0.3,0.4,0.4,0.5c0.1,0.1,0.1,0.3,0.2,0.5s0.1,0.5,0.1,0.7s0,0.6,0,1.1c0,0.4,0,0.8,0,1.1c0,0.3-0.1,0.6-0.2,0.8
				c-0.1,0.2-0.2,0.3-0.3,0.4c-0.1,0.1-0.2,0.1-0.4,0.1c-0.2,0-0.5-0.1-0.9-0.4c-0.3-0.3-0.8-0.6-1.3-0.9c-0.5-0.3-1.2-0.6-2-0.9
				c-0.8-0.3-1.7-0.4-2.7-0.4c-1.2,0-2.2,0.2-3.1,0.7c-0.9,0.5-1.7,1.1-2.3,2c-0.6,0.9-1.1,1.9-1.4,3.2c-0.3,1.2-0.5,2.6-0.5,4.2
				c0,1.7,0.2,3.2,0.5,4.4c0.4,1.3,0.9,2.3,1.5,3.1s1.4,1.4,2.4,1.8c0.9,0.4,2,0.6,3.1,0.6c1,0,2-0.1,2.7-0.4c0.8-0.2,1.4-0.5,2-0.8
				c0.5-0.3,1-0.6,1.3-0.8c0.4-0.2,0.6-0.4,0.8-0.4c0.1,0,0.3,0,0.4,0.1s0.2,0.2,0.2,0.4c0.1,0.2,0.1,0.4,0.1,0.8
				C56.4,165,56.4,165.5,56.4,166z"/>
			<path class="st5" d="M79.4,169.7c0,0.1,0,0.3-0.1,0.4c-0.1,0.1-0.2,0.2-0.4,0.3c-0.2,0.1-0.5,0.1-0.9,0.2c-0.4,0-0.8,0.1-1.4,0.1
				c-0.6,0-1,0-1.4-0.1c-0.4,0-0.7-0.1-0.9-0.2c-0.2-0.1-0.4-0.2-0.4-0.3c-0.1-0.1-0.1-0.2-0.1-0.4v-11.4c0-1-0.1-1.7-0.2-2.3
				c-0.1-0.6-0.3-1-0.6-1.4c-0.3-0.4-0.6-0.7-1-0.9c-0.4-0.2-0.9-0.3-1.5-0.3c-0.7,0-1.4,0.3-2.2,0.8c-0.7,0.5-1.5,1.3-2.3,2.3v13.3
				c0,0.1,0,0.3-0.1,0.4c-0.1,0.1-0.2,0.2-0.5,0.3c-0.2,0.1-0.5,0.1-0.9,0.2c-0.4,0-0.8,0.1-1.4,0.1c-0.6,0-1,0-1.4-0.1
				c-0.4,0-0.6-0.1-0.9-0.2c-0.2-0.1-0.4-0.2-0.5-0.3c-0.1-0.1-0.1-0.2-0.1-0.4v-29.5c0-0.1,0-0.3,0.1-0.4s0.2-0.2,0.5-0.3
				c0.2-0.1,0.5-0.1,0.9-0.2s0.8-0.1,1.4-0.1c0.6,0,1,0,1.4,0.1s0.6,0.1,0.9,0.2c0.2,0.1,0.4,0.2,0.5,0.3s0.1,0.3,0.1,0.4v11.1
				c1-1,2-1.7,3-2.1c1-0.5,2.1-0.7,3.2-0.7c1.4,0,2.5,0.2,3.4,0.7c0.9,0.4,1.7,1.1,2.3,1.8c0.6,0.8,1,1.7,1.2,2.7
				c0.3,1,0.4,2.3,0.4,3.8V169.7z"/>
			<path class="st5" d="M102,169.7c0,0.2-0.1,0.4-0.2,0.5c-0.1,0.1-0.4,0.2-0.7,0.3c-0.3,0.1-0.8,0.1-1.4,0.1c-0.7,0-1.2,0-1.5-0.1
				c-0.3-0.1-0.5-0.1-0.7-0.3c-0.1-0.1-0.2-0.3-0.2-0.5v-1.6c-0.8,0.9-1.8,1.6-2.8,2.1s-2.2,0.7-3.5,0.7c-1.1,0-2-0.1-2.9-0.4
				c-0.9-0.3-1.7-0.7-2.3-1.2c-0.7-0.5-1.2-1.2-1.5-2s-0.5-1.8-0.5-2.8c0-1.2,0.2-2.2,0.7-3c0.5-0.9,1.1-1.6,2-2.1
				c0.9-0.6,2-1,3.4-1.2s2.9-0.4,4.7-0.4h2v-1.2c0-0.6-0.1-1.2-0.2-1.7c-0.1-0.5-0.3-0.9-0.6-1.2s-0.7-0.5-1.2-0.7
				c-0.5-0.1-1.1-0.2-1.8-0.2c-0.9,0-1.8,0.1-2.5,0.3s-1.4,0.4-2,0.7c-0.6,0.3-1,0.5-1.4,0.7s-0.7,0.3-0.9,0.3
				c-0.2,0-0.3-0.1-0.4-0.2c-0.1-0.1-0.2-0.3-0.3-0.4c-0.1-0.2-0.1-0.4-0.2-0.7s-0.1-0.6-0.1-0.9c0-0.5,0-0.8,0.1-1.1
				c0.1-0.3,0.2-0.5,0.4-0.7c0.2-0.2,0.6-0.5,1.1-0.7c0.5-0.3,1.1-0.5,1.8-0.7c0.7-0.2,1.5-0.4,2.3-0.5c0.8-0.1,1.7-0.2,2.6-0.2
				c1.6,0,2.9,0.2,4,0.5c1.1,0.3,2,0.8,2.8,1.4c0.7,0.6,1.2,1.5,1.6,2.5c0.3,1,0.5,2.2,0.5,3.6V169.7z M96.5,161.1h-2.2
				c-0.9,0-1.7,0.1-2.3,0.2c-0.6,0.1-1.2,0.3-1.6,0.6s-0.7,0.6-0.9,1c-0.2,0.4-0.3,0.8-0.3,1.3c0,0.8,0.3,1.5,0.8,2
				c0.5,0.5,1.3,0.7,2.2,0.7c0.8,0,1.5-0.2,2.2-0.6c0.7-0.4,1.3-1,2-1.8V161.1z"/>
			<path class="st5" d="M126.8,169.7c0,0.1,0,0.3-0.1,0.4c-0.1,0.1-0.2,0.2-0.4,0.3s-0.5,0.1-0.9,0.2c-0.4,0-0.8,0.1-1.4,0.1
				c-0.6,0-1,0-1.4-0.1c-0.4,0-0.7-0.1-0.9-0.2c-0.2-0.1-0.4-0.2-0.4-0.3c-0.1-0.1-0.1-0.2-0.1-0.4v-11.4c0-1-0.1-1.7-0.2-2.3
				c-0.1-0.6-0.3-1-0.6-1.4c-0.3-0.4-0.6-0.7-1-0.9c-0.4-0.2-0.9-0.3-1.5-0.3c-0.7,0-1.4,0.3-2.2,0.8c-0.7,0.5-1.5,1.3-2.3,2.3v13.3
				c0,0.1,0,0.3-0.1,0.4c-0.1,0.1-0.2,0.2-0.5,0.3c-0.2,0.1-0.5,0.1-0.9,0.2c-0.4,0-0.8,0.1-1.4,0.1c-0.6,0-1,0-1.4-0.1
				c-0.4,0-0.6-0.1-0.9-0.2c-0.2-0.1-0.4-0.2-0.5-0.3c-0.1-0.1-0.1-0.2-0.1-0.4v-20c0-0.1,0-0.3,0.1-0.4c0.1-0.1,0.2-0.2,0.4-0.3
				c0.2-0.1,0.4-0.1,0.8-0.2c0.3,0,0.7-0.1,1.2-0.1c0.5,0,0.9,0,1.2,0.1c0.3,0,0.6,0.1,0.7,0.2c0.2,0.1,0.3,0.2,0.4,0.3
				c0.1,0.1,0.1,0.2,0.1,0.4v2.3c1.1-1.2,2.2-2.1,3.4-2.7s2.3-0.9,3.6-0.9c1.4,0,2.5,0.2,3.4,0.7c0.9,0.4,1.7,1.1,2.3,1.8
				c0.6,0.8,1,1.7,1.2,2.7s0.4,2.3,0.4,3.7V169.7z"/>
			<path class="st5" d="M150.1,149.6c0,0.1,0,0.2,0,0.3c0,0.1,0,0.2,0,0.3c0,0.1-0.1,0.3-0.1,0.4c0,0.2-0.1,0.4-0.1,0.6l-6,18.1
				c-0.1,0.3-0.2,0.5-0.3,0.6c-0.1,0.2-0.3,0.3-0.6,0.4c-0.3,0.1-0.7,0.1-1.2,0.2c-0.5,0-1.2,0-2,0c-0.8,0-1.4,0-1.9-0.1
				c-0.5,0-0.9-0.1-1.2-0.2s-0.5-0.2-0.6-0.4c-0.1-0.2-0.2-0.4-0.3-0.6l-6-18.1c-0.1-0.3-0.2-0.6-0.2-0.8c-0.1-0.2-0.1-0.4-0.1-0.5
				c0-0.1,0-0.2,0-0.3c0-0.1,0-0.3,0.1-0.4c0.1-0.1,0.2-0.2,0.4-0.3s0.5-0.1,0.9-0.2c0.4,0,0.8,0,1.4,0c0.6,0,1.1,0,1.5,0.1
				c0.4,0,0.7,0.1,0.9,0.2c0.2,0.1,0.4,0.2,0.5,0.3c0.1,0.1,0.2,0.3,0.2,0.5l4.6,14.7l0.1,0.6l0.1-0.6l4.5-14.7
				c0-0.2,0.1-0.3,0.2-0.5c0.1-0.1,0.3-0.2,0.5-0.3c0.2-0.1,0.5-0.1,0.8-0.2c0.4,0,0.8-0.1,1.4-0.1c0.6,0,1,0,1.4,0
				c0.4,0,0.6,0.1,0.8,0.2s0.3,0.2,0.4,0.3C150.1,149.3,150.1,149.5,150.1,149.6z"/>
			<path class="st5" d="M166.3,151.5c0,0.5,0,1,0,1.3s-0.1,0.6-0.1,0.8s-0.1,0.3-0.2,0.4c-0.1,0.1-0.2,0.1-0.4,0.1
				c-0.1,0-0.3,0-0.4-0.1c-0.1-0.1-0.3-0.1-0.5-0.2c-0.2-0.1-0.4-0.1-0.6-0.2c-0.2-0.1-0.5-0.1-0.7-0.1c-0.3,0-0.6,0.1-0.9,0.2
				c-0.3,0.1-0.6,0.3-1,0.6c-0.3,0.3-0.7,0.6-1.1,1.1c-0.4,0.4-0.8,1-1.2,1.7v12.5c0,0.1,0,0.3-0.1,0.4c-0.1,0.1-0.2,0.2-0.5,0.3
				c-0.2,0.1-0.5,0.1-0.9,0.2c-0.4,0-0.8,0.1-1.4,0.1s-1,0-1.4-0.1c-0.4,0-0.6-0.1-0.9-0.2c-0.2-0.1-0.4-0.2-0.5-0.3
				c-0.1-0.1-0.1-0.2-0.1-0.4v-20c0-0.1,0-0.3,0.1-0.4c0.1-0.1,0.2-0.2,0.4-0.3s0.4-0.1,0.8-0.2c0.3,0,0.7-0.1,1.2-0.1
				c0.5,0,0.9,0,1.2,0.1c0.3,0,0.6,0.1,0.7,0.2c0.2,0.1,0.3,0.2,0.4,0.3c0.1,0.1,0.1,0.2,0.1,0.4v2.5c0.5-0.7,1-1.4,1.5-1.9
				c0.5-0.5,0.9-0.9,1.3-1.2s0.8-0.5,1.3-0.6c0.4-0.1,0.8-0.2,1.3-0.2c0.2,0,0.4,0,0.6,0c0.2,0,0.5,0.1,0.7,0.1
				c0.2,0.1,0.4,0.1,0.6,0.2c0.2,0.1,0.3,0.1,0.4,0.2c0.1,0.1,0.1,0.2,0.2,0.2c0,0.1,0.1,0.2,0.1,0.4c0,0.2,0.1,0.4,0.1,0.7
				S166.3,150.9,166.3,151.5z"/>
			<path class="st5" d="M189.5,159.4c0,1.7-0.2,3.3-0.7,4.7s-1.1,2.6-2,3.6s-2.1,1.8-3.4,2.4s-3,0.8-4.8,0.8c-1.8,0-3.3-0.2-4.6-0.7
				s-2.4-1.2-3.3-2.2s-1.5-2.1-1.9-3.5s-0.6-3-0.6-4.7c0-1.7,0.2-3.3,0.7-4.7c0.5-1.4,1.1-2.6,2.1-3.6c0.9-1,2.1-1.8,3.4-2.3
				c1.4-0.6,3-0.8,4.8-0.8c1.8,0,3.4,0.2,4.7,0.7c1.3,0.5,2.4,1.2,3.3,2.1c0.9,0.9,1.5,2.1,1.9,3.5S189.5,157.7,189.5,159.4z
				 M183.7,159.7c0-1-0.1-1.9-0.2-2.7c-0.2-0.8-0.4-1.6-0.8-2.2s-0.9-1.1-1.5-1.4c-0.6-0.3-1.4-0.5-2.3-0.5c-0.8,0-1.6,0.2-2.2,0.5
				c-0.6,0.3-1.1,0.8-1.5,1.3c-0.4,0.6-0.7,1.3-0.9,2.1c-0.2,0.8-0.3,1.8-0.3,2.8c0,1,0.1,1.9,0.2,2.7c0.2,0.8,0.4,1.6,0.8,2.2
				c0.4,0.6,0.9,1.1,1.5,1.4c0.6,0.3,1.4,0.5,2.3,0.5c0.9,0,1.6-0.2,2.2-0.5c0.6-0.3,1.1-0.8,1.5-1.3s0.7-1.3,0.9-2.1
				C183.6,161.7,183.7,160.7,183.7,159.7z"/>
			<path class="st5" d="M214.2,159.4c0,1.7-0.2,3.3-0.7,4.7s-1.1,2.6-2,3.6s-2.1,1.8-3.4,2.4s-3,0.8-4.8,0.8c-1.8,0-3.3-0.2-4.6-0.7
				s-2.4-1.2-3.3-2.2s-1.5-2.1-1.9-3.5s-0.6-3-0.6-4.7c0-1.7,0.2-3.3,0.7-4.7c0.5-1.4,1.1-2.6,2.1-3.6c0.9-1,2.1-1.8,3.4-2.3
				c1.4-0.6,3-0.8,4.8-0.8c1.8,0,3.4,0.2,4.7,0.7c1.3,0.5,2.4,1.2,3.3,2.1c0.9,0.9,1.5,2.1,1.9,3.5S214.2,157.7,214.2,159.4z
				 M208.4,159.7c0-1-0.1-1.9-0.2-2.7c-0.2-0.8-0.4-1.6-0.8-2.2s-0.9-1.1-1.5-1.4c-0.6-0.3-1.4-0.5-2.3-0.5c-0.8,0-1.6,0.2-2.2,0.5
				c-0.6,0.3-1.1,0.8-1.5,1.3c-0.4,0.6-0.7,1.3-0.9,2.1c-0.2,0.8-0.3,1.8-0.3,2.8c0,1,0.1,1.9,0.2,2.7c0.2,0.8,0.4,1.6,0.8,2.2
				c0.4,0.6,0.9,1.1,1.5,1.4c0.6,0.3,1.4,0.5,2.3,0.5c0.9,0,1.6-0.2,2.2-0.5c0.6-0.3,1.1-0.8,1.5-1.3s0.7-1.3,0.9-2.1
				C208.3,161.7,208.4,160.7,208.4,159.7z"/>
		</g>
	</g>
</g>
</svg>
